<?xml version="1.0" encoding="UTF-8" standalone="no"?>
<!DOCTYPE svg PUBLIC "-//W3C//DTD SVG 1.1//EN"
 "http://www.w3.org/Graphics/SVG/1.1/DTD/svg11.dtd">
<!-- Generated by graphviz version 2.40.1 (20161225.0304)
 -->
<!-- Title: %3 Pages: 1 -->
<svg width="730pt" height="378pt"
 viewBox="0.00 0.00 730.00 378.00" xmlns="http://www.w3.org/2000/svg" xmlns:xlink="http://www.w3.org/1999/xlink">
<g id="graph0" class="graph" transform="scale(1 1) rotate(0) translate(4 374)">
<title>%3</title>
<polygon fill="#ffffff" stroke="transparent" points="-4,4 -4,-374 726,-374 726,4 -4,4"/>
<!-- node1 -->
<g id="node1" class="node">
<title>node1</title>
<polygon fill="#c0c0c0" stroke="transparent" points="9,-347 9,-365 555,-365 555,-347 9,-347"/>
<text text-anchor="start" x="264.4897" y="-352.8" font-family="DejaVu Sans" font-weight="bold" font-size="14.00" fill="#000000">ds&#45;00</text>
<g id="a_node1_0"><a xlink:href="https://my.data/ds-00" xlink:title="&lt;TABLE&gt;">
<polygon fill="#eeeeee" stroke="transparent" points="9,-333 9,-347 555,-347 555,-333 9,-333"/>
<text text-anchor="start" x="235.6792" y="-337" font-family="DejaVu Sans" font-size="10.00" fill="#6666ff">https://my.data/ds&#45;00</text>
</a>
</g>
<text text-anchor="start" x="10.7036" y="-319.8" font-family="DejaVu Sans" font-size="14.00" fill="#000000">:description</text>
<text text-anchor="start" x="85.5981" y="-319.8" font-family="DejaVu Sans" font-size="14.00" fill="#000000">&quot;Dataset snippet using SO:Encoding pattern for associated XML metadata.&quot;</text>
<text text-anchor="start" x="11" y="-301.8" font-family="DejaVu Sans" font-size="14.00" fill="#000000">:identifier</text>
<text text-anchor="start" x="86" y="-301.8" font-family="DejaVu Sans" font-size="14.00" fill="#000000">&quot;dataset&#45;00&quot;</text>
<text text-anchor="start" x="11" y="-283.8" font-family="DejaVu Sans" font-size="14.00" fill="#000000">:license</text>
<text text-anchor="start" x="86" y="-283.8" font-family="DejaVu Sans" font-size="14.00" fill="#000000">&quot;https://creativecommons.org/publicdomain/zero/1.0/&quot;</text>
<text text-anchor="start" x="11" y="-265.8" font-family="DejaVu Sans" font-size="14.00" fill="#000000">:name</text>
<text text-anchor="start" x="86" y="-265.8" font-family="DejaVu Sans" font-size="14.00" fill="#000000">&quot;Dataset with metadata encoding&quot;</text>
<polygon fill="none" stroke="#666666" points="8,-260 8,-366 556,-366 556,-260 8,-260"/>
</g>
<!-- node2 -->
<g id="node2" class="node">
<title>node2</title>
<polygon fill="#c0c0c0" stroke="transparent" points="190,-147 190,-165 313,-165 313,-147 190,-147"/>
<text text-anchor="start" x="227.376" y="-152.8" font-family="DejaVu Sans" font-weight="bold" font-size="14.00" fill="#000000">Dataset</text>
<g id="a_node2_1"><a xlink:href="https://schema.org/Dataset" xlink:title="&lt;TABLE&gt;">
<polygon fill="#eeeeee" stroke="transparent" points="190,-133 190,-147 313,-147 313,-133 190,-133"/>
<text text-anchor="start" x="191.749" y="-137" font-family="DejaVu Sans" font-size="10.00" fill="#6666ff">https://schema.org/Dataset</text>
</a>
</g>
<polygon fill="none" stroke="#666666" points="188.5,-132 188.5,-166 313.5,-166 313.5,-132 188.5,-132"/>
</g>
<!-- node1&#45;&gt;node2 -->
<g id="edge1" class="edge">
<title>node1&#45;&gt;node2</title>
<path fill="none" stroke="#000000" d="M271.1577,-255.6408C266.378,-230.3548 260.947,-201.6226 256.9274,-180.3579"/>
<polygon fill="#000000" stroke="#000000" points="260.3175,-179.4479 255.0209,-170.272 253.4393,-180.7481 260.3175,-179.4479"/>
<text text-anchor="start" x="268" y="-227.8" font-family="Times,serif" font-size="14.00" fill="#000000"> </text>
<text text-anchor="start" x="271.5" y="-227.8" font-family="Times,serif" font-size="10.00" fill="#336633">rdf:type</text>
<text text-anchor="start" x="303.1553" y="-227.8" font-family="Times,serif" font-size="14.00" fill="#000000"> </text>
</g>
<!-- node0 -->
<g id="node3" class="node">
<title>node0</title>
<polygon fill="#c0c0c0" stroke="transparent" points="349,-183 349,-201 713,-201 713,-183 349,-183"/>
<text text-anchor="start" x="490.9243" y="-188.8" font-family="DejaVu Sans" font-weight="bold" font-size="14.00" fill="#000000">media&#45;object</text>
<g id="a_node3_2"><a xlink:href="https://my.data/ds-00#media-object" xlink:title="&lt;TABLE&gt;">
<polygon fill="#eeeeee" stroke="transparent" points="349,-169 349,-183 713,-183 713,-169 349,-169"/>
<text text-anchor="start" x="453.2729" y="-173" font-family="DejaVu Sans" font-size="10.00" fill="#6666ff">https://my.data/ds&#45;00#media&#45;object</text>
</a>
</g>
<text text-anchor="start" x="351" y="-155.8" font-family="DejaVu Sans" font-size="14.00" fill="#000000">:contentUrl</text>
<text text-anchor="start" x="460" y="-155.8" font-family="DejaVu Sans" font-size="14.00" fill="#000000">&quot;https://my.server.net/datasets/00.xml&quot;</text>
<text text-anchor="start" x="351" y="-137.8" font-family="DejaVu Sans" font-size="14.00" fill="#000000">:dateModified</text>
<text text-anchor="start" x="460" y="-137.8" font-family="DejaVu Sans" font-size="14.00" fill="#000000">&quot;2019&#45;10&#45;10T12:43:11+00:00.000&quot;</text>
<text text-anchor="start" x="351" y="-119.8" font-family="DejaVu Sans" font-size="14.00" fill="#000000">:description</text>
<text text-anchor="start" x="459.6401" y="-119.8" font-family="DejaVu Sans" font-size="14.00" fill="#000000">&quot;ISO TC211 XML rendering of metadata&quot;</text>
<text text-anchor="start" x="350.9727" y="-101.8" font-family="DejaVu Sans" font-size="14.00" fill="#000000">:encodingFormat</text>
<text text-anchor="start" x="460" y="-101.8" font-family="DejaVu Sans" font-size="14.00" fill="#000000">&quot;http://www.isotc211.org/2005/gmd&quot;</text>
<polygon fill="none" stroke="#666666" points="348,-96 348,-202 714,-202 714,-96 348,-96"/>
</g>
<!-- node1&#45;&gt;node0 -->
<g id="edge3" class="edge">
<title>node1&#45;&gt;node0</title>
<path fill="none" stroke="#000000" d="M368.7386,-255.871C390.3936,-241.6082 413.7322,-226.2366 435.7732,-211.7197"/>
<polygon fill="#000000" stroke="#000000" points="437.7247,-214.6253 444.1509,-206.2018 433.8743,-208.7794 437.7247,-214.6253"/>
<text text-anchor="start" x="413" y="-227.8" font-family="Times,serif" font-size="14.00" fill="#000000"> </text>
<text text-anchor="start" x="416.5" y="-227.8" font-family="Times,serif" font-size="10.00" fill="#336633">:encoding</text>
<text text-anchor="start" x="455.9336" y="-227.8" font-family="Times,serif" font-size="14.00" fill="#000000"> </text>
</g>
<!-- node3 -->
<g id="node4" class="node">
<title>node3</title>
<polygon fill="#c0c0c0" stroke="transparent" points="459,-19 459,-37 604,-37 604,-19 459,-19"/>
<text text-anchor="start" x="492.2036" y="-24.8" font-family="DejaVu Sans" font-weight="bold" font-size="14.00" fill="#000000">MediaObject</text>
<g id="a_node4_3"><a xlink:href="https://schema.org/MediaObject" xlink:title="&lt;TABLE&gt;">
<polygon fill="#eeeeee" stroke="transparent" points="459,-5 459,-19 604,-19 604,-5 459,-5"/>
<text text-anchor="start" x="460.9116" y="-9" font-family="DejaVu Sans" font-size="10.00" fill="#6666ff">https://schema.org/MediaObject</text>
</a>
</g>
<polygon fill="none" stroke="#666666" points="457.5,-4 457.5,-38 604.5,-38 604.5,-4 457.5,-4"/>
</g>
<!-- node0&#45;&gt;node3 -->
<g id="edge2" class="edge">
<title>node0&#45;&gt;node3</title>
<path fill="none" stroke="#000000" d="M531,-91.7389C531,-78.1827 531,-64.2188 531,-52.3163"/>
<polygon fill="#000000" stroke="#000000" points="534.5001,-52.0357 531,-42.0358 527.5001,-52.0358 534.5001,-52.0357"/>
<text text-anchor="start" x="531" y="-63.8" font-family="Times,serif" font-size="14.00" fill="#000000"> </text>
<text text-anchor="start" x="534.5" y="-63.8" font-family="Times,serif" font-size="10.00" fill="#336633">rdf:type</text>
<text text-anchor="start" x="566.1553" y="-63.8" font-family="Times,serif" font-size="14.00" fill="#000000"> </text>
</g>
</g>
</svg>
