<?xml version="1.0" encoding="UTF-8" standalone="no"?>
<!DOCTYPE svg PUBLIC "-//W3C//DTD SVG 1.1//EN"
 "http://www.w3.org/Graphics/SVG/1.1/DTD/svg11.dtd">
<!-- Generated by graphviz version 2.40.1 (20161225.0304)
 -->
<!-- Title: %3 Pages: 1 -->
<svg width="788pt" height="378pt"
 viewBox="0.00 0.00 787.50 378.00" xmlns="http://www.w3.org/2000/svg" xmlns:xlink="http://www.w3.org/1999/xlink">
<g id="graph0" class="graph" transform="scale(1 1) rotate(0) translate(4 374)">
<title>%3</title>
<polygon fill="#ffffff" stroke="transparent" points="-4,4 -4,-374 783.5,-374 783.5,4 -4,4"/>
<!-- node0 -->
<g id="node1" class="node">
<title>node0</title>
<polygon fill="#c0c0c0" stroke="transparent" points="9.5,-347 9.5,-365 574.5,-365 574.5,-347 9.5,-347"/>
<text text-anchor="start" x="274.4897" y="-352.8" font-family="DejaVu Sans" font-weight="bold" font-size="14.00" fill="#000000">ds&#45;00</text>
<g id="a_node1_0"><a xlink:href="file:///Users/vieglais/git/sotools/sotools/docsource/source/examples/data/ds-00" xlink:title="&lt;TABLE&gt;">
<polygon fill="#eeeeee" stroke="transparent" points="9.5,-333 9.5,-347 574.5,-347 574.5,-333 9.5,-333"/>
<text text-anchor="start" x="119.1387" y="-337" font-family="DejaVu Sans" font-size="10.00" fill="#6666ff">file:///Users/vieglais/git/sotools/sotools/docsource/source/examples/data/ds&#45;00</text>
</a>
</g>
<text text-anchor="start" x="11.4175" y="-319.8" font-family="DejaVu Sans" font-size="14.00" fill="#000000">ns1:description</text>
<text text-anchor="start" x="109.043" y="-319.8" font-family="DejaVu Sans" font-size="14.00" fill="#000000">&quot;Dataset snippet using SO:Encoding pattern for associated XML metadata&quot;</text>
<text text-anchor="start" x="11.5" y="-301.8" font-family="DejaVu Sans" font-size="14.00" fill="#000000">ns1:identifier</text>
<text text-anchor="start" x="109.5" y="-301.8" font-family="DejaVu Sans" font-size="14.00" fill="#000000">&quot;dataset&#45;00&quot;</text>
<text text-anchor="start" x="11.5" y="-283.8" font-family="DejaVu Sans" font-size="14.00" fill="#000000">ns1:license</text>
<text text-anchor="start" x="109.5" y="-283.8" font-family="DejaVu Sans" font-size="14.00" fill="#000000">&quot;https://creativecommons.org/publicdomain/zero/1.0/&quot;</text>
<text text-anchor="start" x="11.5" y="-265.8" font-family="DejaVu Sans" font-size="14.00" fill="#000000">ns1:name</text>
<text text-anchor="start" x="109.5" y="-265.8" font-family="DejaVu Sans" font-size="14.00" fill="#000000">&quot;Dataset with metadata encoding&quot;</text>
<polygon fill="none" stroke="#666666" points="8,-260 8,-366 575,-366 575,-260 8,-260"/>
</g>
<!-- node2 -->
<g id="node2" class="node">
<title>node2</title>
<polygon fill="#c0c0c0" stroke="transparent" points="199.5,-147 199.5,-165 322.5,-165 322.5,-147 199.5,-147"/>
<text text-anchor="start" x="236.876" y="-152.8" font-family="DejaVu Sans" font-weight="bold" font-size="14.00" fill="#000000">Dataset</text>
<g id="a_node2_1"><a xlink:href="https://schema.org/Dataset" xlink:title="&lt;TABLE&gt;">
<polygon fill="#eeeeee" stroke="transparent" points="199.5,-133 199.5,-147 322.5,-147 322.5,-133 199.5,-133"/>
<text text-anchor="start" x="201.249" y="-137" font-family="DejaVu Sans" font-size="10.00" fill="#6666ff">https://schema.org/Dataset</text>
</a>
</g>
<polygon fill="none" stroke="#666666" points="198,-132 198,-166 323,-166 323,-132 198,-132"/>
</g>
<!-- node0&#45;&gt;node2 -->
<g id="edge1" class="edge">
<title>node0&#45;&gt;node2</title>
<path fill="none" stroke="#000000" d="M280.6577,-255.6408C275.878,-230.3548 270.447,-201.6226 266.4274,-180.3579"/>
<polygon fill="#000000" stroke="#000000" points="269.8175,-179.4479 264.5209,-170.272 262.9393,-180.7481 269.8175,-179.4479"/>
<text text-anchor="start" x="277.5" y="-227.8" font-family="Times,serif" font-size="14.00" fill="#000000"> </text>
<text text-anchor="start" x="281" y="-227.8" font-family="Times,serif" font-size="10.00" fill="#336633">rdf:type</text>
<text text-anchor="start" x="312.6553" y="-227.8" font-family="Times,serif" font-size="14.00" fill="#000000"> </text>
</g>
<!-- node1 -->
<g id="node3" class="node">
<title>node1</title>
<polygon fill="#c0c0c0" stroke="transparent" points="358.5,-183 358.5,-201 770.5,-201 770.5,-183 358.5,-183"/>
<text text-anchor="start" x="524.4243" y="-188.8" font-family="DejaVu Sans" font-weight="bold" font-size="14.00" fill="#000000">media&#45;object</text>
<g id="a_node3_2"><a xlink:href="file:///Users/vieglais/git/sotools/sotools/docsource/source/examples/data/ds-00#media-object" xlink:title="&lt;TABLE&gt;">
<polygon fill="#eeeeee" stroke="transparent" points="358.5,-169 358.5,-183 770.5,-183 770.5,-169 358.5,-169"/>
<text text-anchor="start" x="360.2324" y="-173" font-family="DejaVu Sans" font-size="10.00" fill="#6666ff">file:///Users/vieglais/git/sotools/sotools/docsource/source/examples/data/ds&#45;00#media&#45;object</text>
</a>
</g>
<text text-anchor="start" x="360.5" y="-155.8" font-family="DejaVu Sans" font-size="14.00" fill="#000000">ns1:contentUrl</text>
<text text-anchor="start" x="504.5" y="-155.8" font-family="DejaVu Sans" font-size="14.00" fill="#000000">&quot;https://my.server.net/datasets/00.xml&quot;</text>
<text text-anchor="start" x="360.5" y="-137.8" font-family="DejaVu Sans" font-size="14.00" fill="#000000">ns1:dateModified</text>
<text text-anchor="start" x="504.5" y="-137.8" font-family="DejaVu Sans" font-size="14.00" fill="#000000">&quot;2019&#45;10&#45;10T12:43:11+00:00.000&quot;</text>
<text text-anchor="start" x="360.5" y="-119.8" font-family="DejaVu Sans" font-size="14.00" fill="#000000">ns1:description</text>
<text text-anchor="start" x="504.5" y="-119.8" font-family="DejaVu Sans" font-size="14.00" fill="#000000">&quot;ISO TC211 XML rendering of metadata&quot;</text>
<text text-anchor="start" x="360.5" y="-101.8" font-family="DejaVu Sans" font-size="14.00" fill="#000000">ns1:encodingFormat</text>
<text text-anchor="start" x="504.5" y="-101.8" font-family="DejaVu Sans" font-size="14.00" fill="#000000">&quot;http://www.isotc211.org/2005/gmd&quot;</text>
<polygon fill="none" stroke="#666666" points="357.5,-96 357.5,-202 771.5,-202 771.5,-96 357.5,-96"/>
</g>
<!-- node0&#45;&gt;node1 -->
<g id="edge2" class="edge">
<title>node0&#45;&gt;node1</title>
<path fill="none" stroke="#000000" d="M386.5989,-255.871C410.4458,-241.5454 436.1548,-226.1012 460.414,-211.5279"/>
<polygon fill="#000000" stroke="#000000" points="462.5101,-214.3517 469.2799,-206.2018 458.9053,-208.3512 462.5101,-214.3517"/>
<text text-anchor="start" x="435.5" y="-227.8" font-family="Times,serif" font-size="14.00" fill="#000000"> </text>
<text text-anchor="start" x="439" y="-227.8" font-family="Times,serif" font-size="10.00" fill="#336633">ns1:encoding</text>
<text text-anchor="start" x="492.3252" y="-227.8" font-family="Times,serif" font-size="14.00" fill="#000000"> </text>
</g>
<!-- node3 -->
<g id="node4" class="node">
<title>node3</title>
<polygon fill="#c0c0c0" stroke="transparent" points="492.5,-19 492.5,-37 637.5,-37 637.5,-19 492.5,-19"/>
<text text-anchor="start" x="525.7036" y="-24.8" font-family="DejaVu Sans" font-weight="bold" font-size="14.00" fill="#000000">MediaObject</text>
<g id="a_node4_3"><a xlink:href="https://schema.org/MediaObject" xlink:title="&lt;TABLE&gt;">
<polygon fill="#eeeeee" stroke="transparent" points="492.5,-5 492.5,-19 637.5,-19 637.5,-5 492.5,-5"/>
<text text-anchor="start" x="494.4116" y="-9" font-family="DejaVu Sans" font-size="10.00" fill="#6666ff">https://schema.org/MediaObject</text>
</a>
</g>
<polygon fill="none" stroke="#666666" points="491,-4 491,-38 638,-38 638,-4 491,-4"/>
</g>
<!-- node1&#45;&gt;node3 -->
<g id="edge3" class="edge">
<title>node1&#45;&gt;node3</title>
<path fill="none" stroke="#000000" d="M564.5,-91.7389C564.5,-78.1827 564.5,-64.2188 564.5,-52.3163"/>
<polygon fill="#000000" stroke="#000000" points="568.0001,-52.0357 564.5,-42.0358 561.0001,-52.0358 568.0001,-52.0357"/>
<text text-anchor="start" x="564.5" y="-63.8" font-family="Times,serif" font-size="14.00" fill="#000000"> </text>
<text text-anchor="start" x="568" y="-63.8" font-family="Times,serif" font-size="10.00" fill="#336633">rdf:type</text>
<text text-anchor="start" x="599.6553" y="-63.8" font-family="Times,serif" font-size="14.00" fill="#000000"> </text>
</g>
</g>
</svg>
