<?xml version="1.0" encoding="UTF-8" standalone="no"?>
<!DOCTYPE svg PUBLIC "-//W3C//DTD SVG 1.1//EN"
 "http://www.w3.org/Graphics/SVG/1.1/DTD/svg11.dtd">
<!-- Generated by graphviz version 2.40.1 (20161225.0304)
 -->
<!-- Title: %3 Pages: 1 -->
<svg width="646pt" height="378pt"
 viewBox="0.00 0.00 646.00 378.00" xmlns="http://www.w3.org/2000/svg" xmlns:xlink="http://www.w3.org/1999/xlink">
<g id="graph0" class="graph" transform="scale(1 1) rotate(0) translate(4 374)">
<title>%3</title>
<polygon fill="#ffffff" stroke="transparent" points="-4,4 -4,-374 642,-374 642,4 -4,4"/>
<!-- node1 -->
<g id="node1" class="node">
<title>node1</title>
<polygon fill="#c0c0c0" stroke="transparent" points="63,-347 63,-365 629,-365 629,-347 63,-347"/>
<text text-anchor="start" x="296.5762" y="-352.8" font-family="DejaVu Sans" font-weight="bold" font-size="14.00" fill="#000000">ds_m_encoding</text>
<g id="a_node1_0"><a xlink:href="https://my.data/ds_m_encoding" xlink:title="&lt;TABLE&gt;">
<polygon fill="#eeeeee" stroke="transparent" points="63,-333 63,-347 629,-347 629,-333 63,-333"/>
<text text-anchor="start" x="276.8838" y="-337" font-family="DejaVu Sans" font-size="10.00" fill="#6666ff">https://my.data/ds_m_encoding</text>
</a>
</g>
<text text-anchor="start" x="64.5898" y="-319.8" font-family="DejaVu Sans" font-size="14.00" fill="#000000">SO:description</text>
<text text-anchor="start" x="159.5981" y="-319.8" font-family="DejaVu Sans" font-size="14.00" fill="#000000">&quot;Dataset snippet using SO:Encoding pattern for associated XML metadata.&quot;</text>
<text text-anchor="start" x="65" y="-301.8" font-family="DejaVu Sans" font-size="14.00" fill="#000000">SO:identifier</text>
<text text-anchor="start" x="160" y="-301.8" font-family="DejaVu Sans" font-size="14.00" fill="#000000">&quot;dataset&#45;00&quot;</text>
<text text-anchor="start" x="65" y="-283.8" font-family="DejaVu Sans" font-size="14.00" fill="#000000">SO:license</text>
<text text-anchor="start" x="160" y="-283.8" font-family="DejaVu Sans" font-size="14.00" fill="#000000">&quot;https://creativecommons.org/publicdomain/zero/1.0/&quot;</text>
<text text-anchor="start" x="65" y="-265.8" font-family="DejaVu Sans" font-size="14.00" fill="#000000">SO:name</text>
<text text-anchor="start" x="160" y="-265.8" font-family="DejaVu Sans" font-size="14.00" fill="#000000">&quot;Dataset with metadata encoding&quot;</text>
<polygon fill="none" stroke="#666666" points="62,-260 62,-366 630,-366 630,-260 62,-260"/>
</g>
<!-- node0 -->
<g id="node2" class="node">
<title>node0</title>
<polygon fill="#c0c0c0" stroke="transparent" points="9,-183 9,-201 393,-201 393,-183 9,-183"/>
<text text-anchor="start" x="160.9243" y="-188.8" font-family="DejaVu Sans" font-weight="bold" font-size="14.00" fill="#000000">media&#45;object</text>
<g id="a_node2_1"><a xlink:href="https://my.data/ds_m_encoding#media-object" xlink:title="&lt;TABLE&gt;">
<polygon fill="#eeeeee" stroke="transparent" points="9,-169 9,-183 393,-183 393,-169 9,-169"/>
<text text-anchor="start" x="100.4775" y="-173" font-family="DejaVu Sans" font-size="10.00" fill="#6666ff">https://my.data/ds_m_encoding#media&#45;object</text>
</a>
</g>
<text text-anchor="start" x="11" y="-155.8" font-family="DejaVu Sans" font-size="14.00" fill="#000000">SO:contentUrl</text>
<text text-anchor="start" x="140" y="-155.8" font-family="DejaVu Sans" font-size="14.00" fill="#000000">&quot;https://my.server.net/datasets/00.xml&quot;</text>
<text text-anchor="start" x="11" y="-137.8" font-family="DejaVu Sans" font-size="14.00" fill="#000000">SO:dateModified</text>
<text text-anchor="start" x="140" y="-137.8" font-family="DejaVu Sans" font-size="14.00" fill="#000000">&quot;2019&#45;10&#45;10T12:43:11+00:00.000&quot;</text>
<text text-anchor="start" x="11" y="-119.8" font-family="DejaVu Sans" font-size="14.00" fill="#000000">SO:description</text>
<text text-anchor="start" x="139.6401" y="-119.8" font-family="DejaVu Sans" font-size="14.00" fill="#000000">&quot;ISO TC211 XML rendering of metadata&quot;</text>
<text text-anchor="start" x="10.8589" y="-101.8" font-family="DejaVu Sans" font-size="14.00" fill="#000000">SO:encodingFormat</text>
<text text-anchor="start" x="140" y="-101.8" font-family="DejaVu Sans" font-size="14.00" fill="#000000">&quot;http://www.isotc211.org/2005/gmd&quot;</text>
<polygon fill="none" stroke="#666666" points="8,-96 8,-202 394,-202 394,-96 8,-96"/>
</g>
<!-- node1&#45;&gt;node0 -->
<g id="edge1" class="edge">
<title>node1&#45;&gt;node0</title>
<path fill="none" stroke="#000000" d="M295.286,-255.6408C283.2962,-242.0799 270.43,-227.5278 258.1759,-213.6679"/>
<polygon fill="#000000" stroke="#000000" points="260.6864,-211.2233 251.4405,-206.0499 255.4422,-215.86 260.6864,-211.2233"/>
<text text-anchor="start" x="278" y="-227.8" font-family="Times,serif" font-size="14.00" fill="#000000"> </text>
<text text-anchor="start" x="281.5" y="-227.8" font-family="Times,serif" font-size="10.00" fill="#336633">SO:encoding</text>
<text text-anchor="start" x="333.7168" y="-227.8" font-family="Times,serif" font-size="14.00" fill="#000000"> </text>
</g>
<!-- node3 -->
<g id="node4" class="node">
<title>node3</title>
<polygon fill="#c0c0c0" stroke="transparent" points="430,-147 430,-165 553,-165 553,-147 430,-147"/>
<text text-anchor="start" x="467.376" y="-152.8" font-family="DejaVu Sans" font-weight="bold" font-size="14.00" fill="#000000">Dataset</text>
<g id="a_node4_2"><a xlink:href="https://schema.org/Dataset" xlink:title="&lt;TABLE&gt;">
<polygon fill="#eeeeee" stroke="transparent" points="430,-133 430,-147 553,-147 553,-133 430,-133"/>
<text text-anchor="start" x="431.749" y="-137" font-family="DejaVu Sans" font-size="10.00" fill="#6666ff">https://schema.org/Dataset</text>
</a>
</g>
<polygon fill="none" stroke="#666666" points="428.5,-132 428.5,-166 553.5,-166 553.5,-132 428.5,-132"/>
</g>
<!-- node1&#45;&gt;node3 -->
<g id="edge3" class="edge">
<title>node1&#45;&gt;node3</title>
<path fill="none" stroke="#000000" d="M396.714,-255.6408C419.9892,-229.3156 446.567,-199.2553 465.5588,-177.7748"/>
<polygon fill="#000000" stroke="#000000" points="468.1907,-180.0821 472.1924,-170.272 462.9465,-175.4454 468.1907,-180.0821"/>
<text text-anchor="start" x="422" y="-227.8" font-family="Times,serif" font-size="14.00" fill="#000000"> </text>
<text text-anchor="start" x="425.5" y="-227.8" font-family="Times,serif" font-size="10.00" fill="#336633">rdf:type</text>
<text text-anchor="start" x="457.1553" y="-227.8" font-family="Times,serif" font-size="14.00" fill="#000000"> </text>
</g>
<!-- node2 -->
<g id="node3" class="node">
<title>node2</title>
<polygon fill="#c0c0c0" stroke="transparent" points="129,-19 129,-37 274,-37 274,-19 129,-19"/>
<text text-anchor="start" x="162.2036" y="-24.8" font-family="DejaVu Sans" font-weight="bold" font-size="14.00" fill="#000000">MediaObject</text>
<g id="a_node3_3"><a xlink:href="https://schema.org/MediaObject" xlink:title="&lt;TABLE&gt;">
<polygon fill="#eeeeee" stroke="transparent" points="129,-5 129,-19 274,-19 274,-5 129,-5"/>
<text text-anchor="start" x="130.9116" y="-9" font-family="DejaVu Sans" font-size="10.00" fill="#6666ff">https://schema.org/MediaObject</text>
</a>
</g>
<polygon fill="none" stroke="#666666" points="127.5,-4 127.5,-38 274.5,-38 274.5,-4 127.5,-4"/>
</g>
<!-- node0&#45;&gt;node2 -->
<g id="edge2" class="edge">
<title>node0&#45;&gt;node2</title>
<path fill="none" stroke="#000000" d="M201,-91.7389C201,-78.1827 201,-64.2188 201,-52.3163"/>
<polygon fill="#000000" stroke="#000000" points="204.5001,-52.0357 201,-42.0358 197.5001,-52.0358 204.5001,-52.0357"/>
<text text-anchor="start" x="201" y="-63.8" font-family="Times,serif" font-size="14.00" fill="#000000"> </text>
<text text-anchor="start" x="204.5" y="-63.8" font-family="Times,serif" font-size="10.00" fill="#336633">rdf:type</text>
<text text-anchor="start" x="236.1553" y="-63.8" font-family="Times,serif" font-size="14.00" fill="#000000"> </text>
</g>
</g>
</svg>
