<?xml version="1.0" encoding="UTF-8" standalone="no"?>
<!DOCTYPE svg PUBLIC "-//W3C//DTD SVG 1.1//EN"
 "http://www.w3.org/Graphics/SVG/1.1/DTD/svg11.dtd">
<!-- Generated by graphviz version 2.40.1 (20161225.0304)
 -->
<!-- Title: %3 Pages: 1 -->
<svg width="647pt" height="378pt"
 viewBox="0.00 0.00 646.50 378.00" xmlns="http://www.w3.org/2000/svg" xmlns:xlink="http://www.w3.org/1999/xlink">
<g id="graph0" class="graph" transform="scale(1 1) rotate(0) translate(4 374)">
<title>%3</title>
<polygon fill="#ffffff" stroke="transparent" points="-4,4 -4,-374 642.5,-374 642.5,4 -4,4"/>
<!-- node1 -->
<g id="node1" class="node">
<title>node1</title>
<polygon fill="#c0c0c0" stroke="transparent" points="65,-347 65,-365 630,-365 630,-347 65,-347"/>
<text text-anchor="start" x="329.9897" y="-352.8" font-family="DejaVu Sans" font-weight="bold" font-size="14.00" fill="#000000">ds&#45;00</text>
<g id="a_node1_0"><a xlink:href="https://my.data/ds-00" xlink:title="&lt;TABLE&gt;">
<polygon fill="#eeeeee" stroke="transparent" points="65,-333 65,-347 630,-347 630,-333 65,-333"/>
<text text-anchor="start" x="301.1792" y="-337" font-family="DejaVu Sans" font-size="10.00" fill="#6666ff">https://my.data/ds&#45;00</text>
</a>
</g>
<text text-anchor="start" x="66.9175" y="-319.8" font-family="DejaVu Sans" font-size="14.00" fill="#000000">ns1:description</text>
<text text-anchor="start" x="164.543" y="-319.8" font-family="DejaVu Sans" font-size="14.00" fill="#000000">&quot;Dataset snippet using SO:Encoding pattern for associated XML metadata&quot;</text>
<text text-anchor="start" x="67" y="-301.8" font-family="DejaVu Sans" font-size="14.00" fill="#000000">ns1:identifier</text>
<text text-anchor="start" x="165" y="-301.8" font-family="DejaVu Sans" font-size="14.00" fill="#000000">&quot;dataset&#45;00&quot;</text>
<text text-anchor="start" x="67" y="-283.8" font-family="DejaVu Sans" font-size="14.00" fill="#000000">ns1:license</text>
<text text-anchor="start" x="165" y="-283.8" font-family="DejaVu Sans" font-size="14.00" fill="#000000">&quot;https://creativecommons.org/publicdomain/zero/1.0/&quot;</text>
<text text-anchor="start" x="67" y="-265.8" font-family="DejaVu Sans" font-size="14.00" fill="#000000">ns1:name</text>
<text text-anchor="start" x="165" y="-265.8" font-family="DejaVu Sans" font-size="14.00" fill="#000000">&quot;Dataset with metadata encoding&quot;</text>
<polygon fill="none" stroke="#666666" points="63.5,-260 63.5,-366 630.5,-366 630.5,-260 63.5,-260"/>
</g>
<!-- node0 -->
<g id="node2" class="node">
<title>node0</title>
<polygon fill="#c0c0c0" stroke="transparent" points="9,-183 9,-201 395,-201 395,-183 9,-183"/>
<text text-anchor="start" x="161.9243" y="-188.8" font-family="DejaVu Sans" font-weight="bold" font-size="14.00" fill="#000000">media&#45;object</text>
<g id="a_node2_1"><a xlink:href="https://my.data/ds-00#media-object" xlink:title="&lt;TABLE&gt;">
<polygon fill="#eeeeee" stroke="transparent" points="9,-169 9,-183 395,-183 395,-169 9,-169"/>
<text text-anchor="start" x="124.2729" y="-173" font-family="DejaVu Sans" font-size="10.00" fill="#6666ff">https://my.data/ds&#45;00#media&#45;object</text>
</a>
</g>
<text text-anchor="start" x="11" y="-155.8" font-family="DejaVu Sans" font-size="14.00" fill="#000000">ns1:contentUrl</text>
<text text-anchor="start" x="142" y="-155.8" font-family="DejaVu Sans" font-size="14.00" fill="#000000">&quot;https://my.server.net/datasets/00.xml&quot;</text>
<text text-anchor="start" x="11" y="-137.8" font-family="DejaVu Sans" font-size="14.00" fill="#000000">ns1:dateModified</text>
<text text-anchor="start" x="142" y="-137.8" font-family="DejaVu Sans" font-size="14.00" fill="#000000">&quot;2019&#45;10&#45;10T12:43:11+00:00.000&quot;</text>
<text text-anchor="start" x="11" y="-119.8" font-family="DejaVu Sans" font-size="14.00" fill="#000000">ns1:description</text>
<text text-anchor="start" x="141.6401" y="-119.8" font-family="DejaVu Sans" font-size="14.00" fill="#000000">&quot;ISO TC211 XML rendering of metadata&quot;</text>
<text text-anchor="start" x="10.6865" y="-101.8" font-family="DejaVu Sans" font-size="14.00" fill="#000000">ns1:encodingFormat</text>
<text text-anchor="start" x="142" y="-101.8" font-family="DejaVu Sans" font-size="14.00" fill="#000000">&quot;http://www.isotc211.org/2005/gmd&quot;</text>
<polygon fill="none" stroke="#666666" points="8,-96 8,-202 396,-202 396,-96 8,-96"/>
</g>
<!-- node1&#45;&gt;node0 -->
<g id="edge1" class="edge">
<title>node1&#45;&gt;node0</title>
<path fill="none" stroke="#000000" d="M296.286,-255.6408C284.2962,-242.0799 271.43,-227.5278 259.1759,-213.6679"/>
<polygon fill="#000000" stroke="#000000" points="261.6864,-211.2233 252.4405,-206.0499 256.4422,-215.86 261.6864,-211.2233"/>
<text text-anchor="start" x="279" y="-227.8" font-family="Times,serif" font-size="14.00" fill="#000000"> </text>
<text text-anchor="start" x="282.5" y="-227.8" font-family="Times,serif" font-size="10.00" fill="#336633">ns1:encoding</text>
<text text-anchor="start" x="335.8252" y="-227.8" font-family="Times,serif" font-size="14.00" fill="#000000"> </text>
</g>
<!-- node2 -->
<g id="node3" class="node">
<title>node2</title>
<polygon fill="#c0c0c0" stroke="transparent" points="432,-147 432,-165 555,-165 555,-147 432,-147"/>
<text text-anchor="start" x="469.376" y="-152.8" font-family="DejaVu Sans" font-weight="bold" font-size="14.00" fill="#000000">Dataset</text>
<g id="a_node3_2"><a xlink:href="https://schema.org/Dataset" xlink:title="&lt;TABLE&gt;">
<polygon fill="#eeeeee" stroke="transparent" points="432,-133 432,-147 555,-147 555,-133 432,-133"/>
<text text-anchor="start" x="433.749" y="-137" font-family="DejaVu Sans" font-size="10.00" fill="#6666ff">https://schema.org/Dataset</text>
</a>
</g>
<polygon fill="none" stroke="#666666" points="430.5,-132 430.5,-166 555.5,-166 555.5,-132 430.5,-132"/>
</g>
<!-- node1&#45;&gt;node2 -->
<g id="edge2" class="edge">
<title>node1&#45;&gt;node2</title>
<path fill="none" stroke="#000000" d="M398.0637,-255.6408C421.4995,-229.3156 448.2606,-199.2553 467.3834,-177.7748"/>
<polygon fill="#000000" stroke="#000000" points="470.0276,-180.0684 474.0627,-170.272 464.7992,-175.4138 470.0276,-180.0684"/>
<text text-anchor="start" x="424" y="-227.8" font-family="Times,serif" font-size="14.00" fill="#000000"> </text>
<text text-anchor="start" x="427.5" y="-227.8" font-family="Times,serif" font-size="10.00" fill="#336633">rdf:type</text>
<text text-anchor="start" x="459.1553" y="-227.8" font-family="Times,serif" font-size="14.00" fill="#000000"> </text>
</g>
<!-- node3 -->
<g id="node4" class="node">
<title>node3</title>
<polygon fill="#c0c0c0" stroke="transparent" points="130,-19 130,-37 275,-37 275,-19 130,-19"/>
<text text-anchor="start" x="163.2036" y="-24.8" font-family="DejaVu Sans" font-weight="bold" font-size="14.00" fill="#000000">MediaObject</text>
<g id="a_node4_3"><a xlink:href="https://schema.org/MediaObject" xlink:title="&lt;TABLE&gt;">
<polygon fill="#eeeeee" stroke="transparent" points="130,-5 130,-19 275,-19 275,-5 130,-5"/>
<text text-anchor="start" x="131.9116" y="-9" font-family="DejaVu Sans" font-size="10.00" fill="#6666ff">https://schema.org/MediaObject</text>
</a>
</g>
<polygon fill="none" stroke="#666666" points="128.5,-4 128.5,-38 275.5,-38 275.5,-4 128.5,-4"/>
</g>
<!-- node0&#45;&gt;node3 -->
<g id="edge3" class="edge">
<title>node0&#45;&gt;node3</title>
<path fill="none" stroke="#000000" d="M202,-91.7389C202,-78.1827 202,-64.2188 202,-52.3163"/>
<polygon fill="#000000" stroke="#000000" points="205.5001,-52.0357 202,-42.0358 198.5001,-52.0358 205.5001,-52.0357"/>
<text text-anchor="start" x="202" y="-63.8" font-family="Times,serif" font-size="14.00" fill="#000000"> </text>
<text text-anchor="start" x="205.5" y="-63.8" font-family="Times,serif" font-size="10.00" fill="#336633">rdf:type</text>
<text text-anchor="start" x="237.1553" y="-63.8" font-family="Times,serif" font-size="14.00" fill="#000000"> </text>
</g>
</g>
</svg>
