<?xml version="1.0" encoding="UTF-8" standalone="no"?>
<!DOCTYPE svg PUBLIC "-//W3C//DTD SVG 1.1//EN"
 "http://www.w3.org/Graphics/SVG/1.1/DTD/svg11.dtd">
<!-- Generated by graphviz version 2.40.1 (20161225.0304)
 -->
<!-- Title: %3 Pages: 1 -->
<svg width="883pt" height="396pt"
 viewBox="0.00 0.00 883.00 396.00" xmlns="http://www.w3.org/2000/svg" xmlns:xlink="http://www.w3.org/1999/xlink">
<g id="graph0" class="graph" transform="scale(1 1) rotate(0) translate(4 392)">
<title>%3</title>
<polygon fill="#ffffff" stroke="transparent" points="-4,4 -4,-392 879,-392 879,4 -4,4"/>
<!-- node1 -->
<g id="node1" class="node">
<title>node1</title>
<polygon fill="#c0c0c0" stroke="transparent" points="9,-365 9,-383 605,-383 605,-365 9,-365"/>
<text text-anchor="start" x="289.4897" y="-370.8" font-family="DejaVu Sans" font-weight="bold" font-size="14.00" fill="#000000">ds&#45;02</text>
<g id="a_node1_0"><a xlink:href="file:///Users/vieglais/git/sotools/sotools/docsource/source/examples/data/ds-02" xlink:title="&lt;TABLE&gt;">
<polygon fill="#eeeeee" stroke="transparent" points="9,-351 9,-365 605,-365 605,-351 9,-351"/>
<text text-anchor="start" x="134.1387" y="-355" font-family="DejaVu Sans" font-size="10.00" fill="#6666ff">file:///Users/vieglais/git/sotools/sotools/docsource/source/examples/data/ds&#45;02</text>
</a>
</g>
<text text-anchor="start" x="10.5898" y="-337.8" font-family="DejaVu Sans" font-size="14.00" fill="#000000">SO:description</text>
<text text-anchor="start" x="105.9487" y="-337.8" font-family="DejaVu Sans" font-size="14.00" fill="#000000">&quot;Dataset snippet with descriptive metadata indicated through subjectOf relation.&quot;</text>
<text text-anchor="start" x="11" y="-319.8" font-family="DejaVu Sans" font-size="14.00" fill="#000000">SO:identifier</text>
<text text-anchor="start" x="106" y="-319.8" font-family="DejaVu Sans" font-size="14.00" fill="#000000">&quot;dataset&#45;02&quot;</text>
<text text-anchor="start" x="11" y="-301.8" font-family="DejaVu Sans" font-size="14.00" fill="#000000">SO:license</text>
<text text-anchor="start" x="106" y="-301.8" font-family="DejaVu Sans" font-size="14.00" fill="#000000">&quot;https://creativecommons.org/publicdomain/zero/1.0/&quot;</text>
<text text-anchor="start" x="11" y="-283.8" font-family="DejaVu Sans" font-size="14.00" fill="#000000">SO:name</text>
<text text-anchor="start" x="106" y="-283.8" font-family="DejaVu Sans" font-size="14.00" fill="#000000">&quot;Dataset subjectOf metadata&quot;</text>
<text text-anchor="start" x="11" y="-265.8" font-family="DejaVu Sans" font-size="14.00" fill="#000000">SO:url</text>
<text text-anchor="start" x="106" y="-265.8" font-family="DejaVu Sans" font-size="14.00" fill="#000000">&quot;https://my.server.org/data/ds&#45;02&quot;</text>
<polygon fill="none" stroke="#666666" points="8,-260 8,-384 606,-384 606,-260 8,-260"/>
</g>
<!-- node2 -->
<g id="node2" class="node">
<title>node2</title>
<polygon fill="#c0c0c0" stroke="transparent" points="215,-147 215,-165 338,-165 338,-147 215,-147"/>
<text text-anchor="start" x="252.376" y="-152.8" font-family="DejaVu Sans" font-weight="bold" font-size="14.00" fill="#000000">Dataset</text>
<g id="a_node2_1"><a xlink:href="https://schema.org/Dataset" xlink:title="&lt;TABLE&gt;">
<polygon fill="#eeeeee" stroke="transparent" points="215,-133 215,-147 338,-147 338,-133 215,-133"/>
<text text-anchor="start" x="216.749" y="-137" font-family="DejaVu Sans" font-size="10.00" fill="#6666ff">https://schema.org/Dataset</text>
</a>
</g>
<polygon fill="none" stroke="#666666" points="213.5,-132 213.5,-166 338.5,-166 338.5,-132 213.5,-132"/>
</g>
<!-- node1&#45;&gt;node2 -->
<g id="edge1" class="edge">
<title>node1&#45;&gt;node2</title>
<path fill="none" stroke="#000000" d="M295.1032,-255.6085C290.4583,-229.6867 285.3563,-201.2144 281.5943,-180.2198"/>
<polygon fill="#000000" stroke="#000000" points="285.0199,-179.4932 279.8109,-170.2674 278.1297,-180.7279 285.0199,-179.4932"/>
<text text-anchor="start" x="292" y="-227.8" font-family="Times,serif" font-size="14.00" fill="#000000"> </text>
<text text-anchor="start" x="295.5" y="-227.8" font-family="Times,serif" font-size="10.00" fill="#336633">rdf:type</text>
<text text-anchor="start" x="327.1553" y="-227.8" font-family="Times,serif" font-size="14.00" fill="#000000"> </text>
</g>
<!-- node0 -->
<g id="node3" class="node">
<title>node0</title>
<polygon fill="#c0c0c0" stroke="transparent" points="374,-183 374,-201 866,-201 866,-183 374,-183"/>
<text text-anchor="start" x="577.9829" y="-188.8" font-family="DejaVu Sans" font-weight="bold" font-size="14.00" fill="#000000">metadata.xml</text>
<g id="a_node3_2"><a xlink:href="file:///Users/vieglais/git/sotools/sotools/docsource/source/examples/data/ds-02/metadata.xml" xlink:title="&lt;TABLE&gt;">
<polygon fill="#eeeeee" stroke="transparent" points="374,-169 374,-183 866,-183 866,-169 374,-169"/>
<text text-anchor="start" x="415.7373" y="-173" font-family="DejaVu Sans" font-size="10.00" fill="#6666ff">file:///Users/vieglais/git/sotools/sotools/docsource/source/examples/data/ds&#45;02/metadata.xml</text>
</a>
</g>
<text text-anchor="start" x="375.8589" y="-155.8" font-family="DejaVu Sans" font-size="14.00" fill="#000000">SO:encodingFormat</text>
<text text-anchor="start" x="505" y="-155.8" font-family="DejaVu Sans" font-size="14.00" fill="#000000">&quot;application/rdf+xml&quot;</text>
<text text-anchor="start" x="375.8589" y="-137.8" font-family="DejaVu Sans" font-size="14.00" fill="#000000">SO:encodingFormat</text>
<text text-anchor="start" x="505" y="-137.8" font-family="DejaVu Sans" font-size="14.00" fill="#000000">&quot;http://ns.dataone.org/metadata/schema/onedcx/v1.0&quot;</text>
<text text-anchor="start" x="376" y="-119.8" font-family="DejaVu Sans" font-size="14.00" fill="#000000">SO:name</text>
<text text-anchor="start" x="504.8311" y="-119.8" font-family="DejaVu Sans" font-size="14.00" fill="#000000">&quot;Dublin Core Metadata Document Describing the Dataset&quot;</text>
<text text-anchor="start" x="376" y="-101.8" font-family="DejaVu Sans" font-size="14.00" fill="#000000">SO:url</text>
<text text-anchor="start" x="505" y="-101.8" font-family="DejaVu Sans" font-size="14.00" fill="#000000">&quot;https://my.server.org/data/ds&#45;02/metadata.xml&quot;</text>
<polygon fill="none" stroke="#666666" points="373,-96 373,-202 867,-202 867,-96 373,-96"/>
</g>
<!-- node1&#45;&gt;node0 -->
<g id="edge3" class="edge">
<title>node1&#45;&gt;node0</title>
<path fill="none" stroke="#000000" d="M426.6717,-255.8556C453.3407,-241.1152 481.5225,-225.5387 507.8744,-210.9736"/>
<polygon fill="#000000" stroke="#000000" points="509.6772,-213.9762 516.7362,-206.0755 506.291,-207.8498 509.6772,-213.9762"/>
<text text-anchor="start" x="482" y="-227.8" font-family="Times,serif" font-size="14.00" fill="#000000"> </text>
<text text-anchor="start" x="485.5" y="-227.8" font-family="Times,serif" font-size="10.00" fill="#336633">SO:subjectOf</text>
<text text-anchor="start" x="539.9385" y="-227.8" font-family="Times,serif" font-size="14.00" fill="#000000"> </text>
</g>
<!-- node3 -->
<g id="node4" class="node">
<title>node3</title>
<polygon fill="#c0c0c0" stroke="transparent" points="546,-19 546,-37 695,-37 695,-19 546,-19"/>
<text text-anchor="start" x="578.2266" y="-24.8" font-family="DejaVu Sans" font-weight="bold" font-size="14.00" fill="#000000">CreativeWork</text>
<g id="a_node4_3"><a xlink:href="https://schema.org/CreativeWork" xlink:title="&lt;TABLE&gt;">
<polygon fill="#eeeeee" stroke="transparent" points="546,-5 546,-19 695,-19 695,-5 546,-5"/>
<text text-anchor="start" x="547.7852" y="-9" font-family="DejaVu Sans" font-size="10.00" fill="#6666ff">https://schema.org/CreativeWork</text>
</a>
</g>
<polygon fill="none" stroke="#666666" points="544.5,-4 544.5,-38 695.5,-38 695.5,-4 544.5,-4"/>
</g>
<!-- node0&#45;&gt;node3 -->
<g id="edge2" class="edge">
<title>node0&#45;&gt;node3</title>
<path fill="none" stroke="#000000" d="M620,-91.7389C620,-78.1827 620,-64.2188 620,-52.3163"/>
<polygon fill="#000000" stroke="#000000" points="623.5001,-52.0357 620,-42.0358 616.5001,-52.0358 623.5001,-52.0357"/>
<text text-anchor="start" x="620" y="-63.8" font-family="Times,serif" font-size="14.00" fill="#000000"> </text>
<text text-anchor="start" x="623.5" y="-63.8" font-family="Times,serif" font-size="10.00" fill="#336633">rdf:type</text>
<text text-anchor="start" x="655.1553" y="-63.8" font-family="Times,serif" font-size="14.00" fill="#000000"> </text>
</g>
</g>
</svg>
