<?xml version="1.0" encoding="UTF-8" standalone="no"?>
<!DOCTYPE svg PUBLIC "-//W3C//DTD SVG 1.1//EN"
 "http://www.w3.org/Graphics/SVG/1.1/DTD/svg11.dtd">
<!-- Generated by graphviz version 2.40.1 (20161225.0304)
 -->
<!-- Title: %3 Pages: 1 -->
<svg width="742pt" height="396pt"
 viewBox="0.00 0.00 742.00 396.00" xmlns="http://www.w3.org/2000/svg" xmlns:xlink="http://www.w3.org/1999/xlink">
<g id="graph0" class="graph" transform="scale(1 1) rotate(0) translate(4 392)">
<title>%3</title>
<polygon fill="#ffffff" stroke="transparent" points="-4,4 -4,-392 738,-392 738,4 -4,4"/>
<!-- node0 -->
<g id="node1" class="node">
<title>node0</title>
<polygon fill="#c0c0c0" stroke="transparent" points="129,-365 129,-383 725,-383 725,-365 129,-365"/>
<text text-anchor="start" x="409.4897" y="-370.8" font-family="DejaVu Sans" font-weight="bold" font-size="14.00" fill="#000000">ds&#45;02</text>
<g id="a_node1_0"><a xlink:href="file:///Users/vieglais/git/sotools/sotools/docsource/source/examples/data/ds-02" xlink:title="&lt;TABLE&gt;">
<polygon fill="#eeeeee" stroke="transparent" points="129,-351 129,-365 725,-365 725,-351 129,-351"/>
<text text-anchor="start" x="254.1387" y="-355" font-family="DejaVu Sans" font-size="10.00" fill="#6666ff">file:///Users/vieglais/git/sotools/sotools/docsource/source/examples/data/ds&#45;02</text>
</a>
</g>
<text text-anchor="start" x="130.5898" y="-337.8" font-family="DejaVu Sans" font-size="14.00" fill="#000000">SO:description</text>
<text text-anchor="start" x="225.9487" y="-337.8" font-family="DejaVu Sans" font-size="14.00" fill="#000000">&quot;Dataset snippet with descriptive metadata indicated through subjectOf relation.&quot;</text>
<text text-anchor="start" x="131" y="-319.8" font-family="DejaVu Sans" font-size="14.00" fill="#000000">SO:identifier</text>
<text text-anchor="start" x="226" y="-319.8" font-family="DejaVu Sans" font-size="14.00" fill="#000000">&quot;dataset&#45;02&quot;</text>
<text text-anchor="start" x="131" y="-301.8" font-family="DejaVu Sans" font-size="14.00" fill="#000000">SO:license</text>
<text text-anchor="start" x="226" y="-301.8" font-family="DejaVu Sans" font-size="14.00" fill="#000000">&quot;https://creativecommons.org/publicdomain/zero/1.0/&quot;</text>
<text text-anchor="start" x="131" y="-283.8" font-family="DejaVu Sans" font-size="14.00" fill="#000000">SO:name</text>
<text text-anchor="start" x="226" y="-283.8" font-family="DejaVu Sans" font-size="14.00" fill="#000000">&quot;Dataset subjectOf metadata&quot;</text>
<text text-anchor="start" x="131" y="-265.8" font-family="DejaVu Sans" font-size="14.00" fill="#000000">SO:url</text>
<text text-anchor="start" x="226" y="-265.8" font-family="DejaVu Sans" font-size="14.00" fill="#000000">&quot;https://my.server.org/data/ds&#45;02&quot;</text>
<polygon fill="none" stroke="#666666" points="128,-260 128,-384 726,-384 726,-260 128,-260"/>
</g>
<!-- node1 -->
<g id="node2" class="node">
<title>node1</title>
<polygon fill="#c0c0c0" stroke="transparent" points="9,-183 9,-201 501,-201 501,-183 9,-183"/>
<text text-anchor="start" x="212.9829" y="-188.8" font-family="DejaVu Sans" font-weight="bold" font-size="14.00" fill="#000000">metadata.xml</text>
<g id="a_node2_1"><a xlink:href="file:///Users/vieglais/git/sotools/sotools/docsource/source/examples/data/ds-02/metadata.xml" xlink:title="&lt;TABLE&gt;">
<polygon fill="#eeeeee" stroke="transparent" points="9,-169 9,-183 501,-183 501,-169 9,-169"/>
<text text-anchor="start" x="50.7373" y="-173" font-family="DejaVu Sans" font-size="10.00" fill="#6666ff">file:///Users/vieglais/git/sotools/sotools/docsource/source/examples/data/ds&#45;02/metadata.xml</text>
</a>
</g>
<text text-anchor="start" x="10.8589" y="-155.8" font-family="DejaVu Sans" font-size="14.00" fill="#000000">SO:encodingFormat</text>
<text text-anchor="start" x="140" y="-155.8" font-family="DejaVu Sans" font-size="14.00" fill="#000000">&quot;application/rdf+xml&quot;</text>
<text text-anchor="start" x="10.8589" y="-137.8" font-family="DejaVu Sans" font-size="14.00" fill="#000000">SO:encodingFormat</text>
<text text-anchor="start" x="140" y="-137.8" font-family="DejaVu Sans" font-size="14.00" fill="#000000">&quot;http://ns.dataone.org/metadata/schema/onedcx/v1.0&quot;</text>
<text text-anchor="start" x="11" y="-119.8" font-family="DejaVu Sans" font-size="14.00" fill="#000000">SO:name</text>
<text text-anchor="start" x="139.8311" y="-119.8" font-family="DejaVu Sans" font-size="14.00" fill="#000000">&quot;Dublin Core Metadata Document Describing the Dataset&quot;</text>
<text text-anchor="start" x="11" y="-101.8" font-family="DejaVu Sans" font-size="14.00" fill="#000000">SO:url</text>
<text text-anchor="start" x="140" y="-101.8" font-family="DejaVu Sans" font-size="14.00" fill="#000000">&quot;https://my.server.org/data/ds&#45;02/metadata.xml&quot;</text>
<polygon fill="none" stroke="#666666" points="8,-96 8,-202 502,-202 502,-96 8,-96"/>
</g>
<!-- node0&#45;&gt;node1 -->
<g id="edge1" class="edge">
<title>node0&#45;&gt;node1</title>
<path fill="none" stroke="#000000" d="M360.9922,-255.6085C347.197,-241.733 332.6752,-227.1268 318.956,-213.3279"/>
<polygon fill="#000000" stroke="#000000" points="321.3956,-210.8175 311.863,-206.1936 316.4315,-215.7529 321.3956,-210.8175"/>
<text text-anchor="start" x="341" y="-227.8" font-family="Times,serif" font-size="14.00" fill="#000000"> </text>
<text text-anchor="start" x="344.5" y="-227.8" font-family="Times,serif" font-size="10.00" fill="#336633">SO:subjectOf</text>
<text text-anchor="start" x="398.9385" y="-227.8" font-family="Times,serif" font-size="14.00" fill="#000000"> </text>
</g>
<!-- node3 -->
<g id="node4" class="node">
<title>node3</title>
<polygon fill="#c0c0c0" stroke="transparent" points="538,-147 538,-165 661,-165 661,-147 538,-147"/>
<text text-anchor="start" x="575.376" y="-152.8" font-family="DejaVu Sans" font-weight="bold" font-size="14.00" fill="#000000">Dataset</text>
<g id="a_node4_2"><a xlink:href="https://schema.org/Dataset" xlink:title="&lt;TABLE&gt;">
<polygon fill="#eeeeee" stroke="transparent" points="538,-133 538,-147 661,-147 661,-133 538,-133"/>
<text text-anchor="start" x="539.749" y="-137" font-family="DejaVu Sans" font-size="10.00" fill="#6666ff">https://schema.org/Dataset</text>
</a>
</g>
<polygon fill="none" stroke="#666666" points="536.5,-132 536.5,-166 661.5,-166 661.5,-132 536.5,-132"/>
</g>
<!-- node0&#45;&gt;node3 -->
<g id="edge3" class="edge">
<title>node0&#45;&gt;node3</title>
<path fill="none" stroke="#000000" d="M493.0078,-255.6085C519.9565,-228.503 549.6779,-198.6088 570.7726,-177.3915"/>
<polygon fill="#000000" stroke="#000000" points="573.287,-179.8266 577.8556,-170.2674 568.323,-174.8912 573.287,-179.8266"/>
<text text-anchor="start" x="523" y="-227.8" font-family="Times,serif" font-size="14.00" fill="#000000"> </text>
<text text-anchor="start" x="526.5" y="-227.8" font-family="Times,serif" font-size="10.00" fill="#336633">rdf:type</text>
<text text-anchor="start" x="558.1553" y="-227.8" font-family="Times,serif" font-size="14.00" fill="#000000"> </text>
</g>
<!-- node2 -->
<g id="node3" class="node">
<title>node2</title>
<polygon fill="#c0c0c0" stroke="transparent" points="181,-19 181,-37 330,-37 330,-19 181,-19"/>
<text text-anchor="start" x="213.2266" y="-24.8" font-family="DejaVu Sans" font-weight="bold" font-size="14.00" fill="#000000">CreativeWork</text>
<g id="a_node3_3"><a xlink:href="https://schema.org/CreativeWork" xlink:title="&lt;TABLE&gt;">
<polygon fill="#eeeeee" stroke="transparent" points="181,-5 181,-19 330,-19 330,-5 181,-5"/>
<text text-anchor="start" x="182.7852" y="-9" font-family="DejaVu Sans" font-size="10.00" fill="#6666ff">https://schema.org/CreativeWork</text>
</a>
</g>
<polygon fill="none" stroke="#666666" points="179.5,-4 179.5,-38 330.5,-38 330.5,-4 179.5,-4"/>
</g>
<!-- node1&#45;&gt;node2 -->
<g id="edge2" class="edge">
<title>node1&#45;&gt;node2</title>
<path fill="none" stroke="#000000" d="M255,-91.7389C255,-78.1827 255,-64.2188 255,-52.3163"/>
<polygon fill="#000000" stroke="#000000" points="258.5001,-52.0357 255,-42.0358 251.5001,-52.0358 258.5001,-52.0357"/>
<text text-anchor="start" x="255" y="-63.8" font-family="Times,serif" font-size="14.00" fill="#000000"> </text>
<text text-anchor="start" x="258.5" y="-63.8" font-family="Times,serif" font-size="10.00" fill="#336633">rdf:type</text>
<text text-anchor="start" x="290.1553" y="-63.8" font-family="Times,serif" font-size="14.00" fill="#000000"> </text>
</g>
</g>
</svg>
